<svg width="42" height="42" viewBox="0 0 42 42" fill="none" xmlns="http://www.w3.org/2000/svg">
<rect x="1" y="1" width="40" height="40" rx="3" stroke="#DADADA" stroke-width="2"/>
<path d="M23.929 29.1511C23.4798 29.1892 23.0289 29.0971 22.6408 28.8879C22.3573 28.6234 22.2213 28.2561 22.2713 27.8897C22.2818 27.5846 22.3219 27.2809 22.3911 26.9822C22.4582 26.6395 22.5448 26.3002 22.6508 25.9657L23.8291 22.2812C23.9506 21.9175 24.031 21.5435 24.0688 21.1649C24.0688 20.7566 24.1287 20.4752 24.1287 20.3119C24.1538 19.584 23.8118 18.8855 23.2 18.4152C22.4474 17.8901 21.5103 17.6321 20.5636 17.6891C19.8853 17.6984 19.2121 17.7993 18.5664 17.9886C17.8607 18.1883 17.1184 18.4272 16.3395 18.7056L16 19.9035C16.2296 19.8309 16.5093 19.7492 16.8288 19.6585C17.1337 19.5764 17.4496 19.5336 17.7675 19.5314C18.2134 19.4875 18.6623 19.587 19.0357 19.8127C19.2894 20.0878 19.4084 20.4451 19.3653 20.802C19.3642 21.1071 19.3273 21.4114 19.2554 21.7094C19.1855 22.0271 19.0956 22.3628 18.9858 22.7168L17.7975 26.4194C17.7017 26.7636 17.6251 27.1119 17.5678 27.4631C17.5211 27.7637 17.4978 28.0669 17.4979 28.3705C17.493 29.1034 17.8617 29.797 18.4965 30.2491C19.2606 30.7823 20.2111 31.0466 21.1727 30.9933C21.8498 31.0059 22.5246 30.917 23.17 30.73C23.7358 30.5546 24.4915 30.3035 25.4368 29.9768L25.7564 28.8333C25.5003 28.9299 25.2366 29.0087 24.9675 29.0692C24.6271 29.1399 24.2777 29.1674 23.929 29.1511Z" fill="#00B0FC"/>
<path d="M25.1772 11.6814C24.6338 11.2279 23.9177 10.9838 23.18 11.0008C22.4427 10.9857 21.7273 11.2295 21.1827 11.6814C20.1845 12.4637 20.073 13.8333 20.9339 14.7405C21.0106 14.8214 21.0937 14.897 21.1827 14.9667C22.32 15.8911 24.04 15.8911 25.1772 14.9667C26.1754 14.1767 26.28 12.801 25.4108 11.8938C25.3385 11.8182 25.2604 11.7473 25.1772 11.6814Z" fill="#00B0FC"/>
</svg>
